<?xml version="1.0" standalone="no"?>
<!DOCTYPE svg PUBLIC "-//W3C//DTD SVG 20010904//EN"
 "http://www.w3.org/TR/2001/REC-SVG-20010904/DTD/svg10.dtd">
<svg version="1.0" xmlns="http://www.w3.org/2000/svg"
 width="485.000000pt" height="485.000000pt" viewBox="0 0 485.000000 485.000000"
 preserveAspectRatio="xMidYMid meet">
<metadata>
Created by potrace 1.14, written by Peter Selinger 2001-2017
</metadata>
<g transform="translate(0.000000,485.000000) scale(0.100000,-0.100000)"
fill="#000000" stroke="none">
<path d="M3278 3189 c-44 -25 -3 -93 42 -69 26 14 26 56 1 70 -23 12 -22 12
-43 -1z"/>
<path d="M3417 3193 c-13 -13 -7 -51 10 -57 23 -9 47 17 38 43 -6 20 -34 28
-48 14z"/>
<path d="M3524 3165 c-4 -9 -2 -21 4 -27 15 -15 44 -1 40 19 -4 23 -36 29 -44
8z"/>
<path d="M3097 3142 c-36 -39 -10 -92 43 -92 50 0 69 66 28 94 -29 21 -51 20
-71 -2z"/>
<path d="M3610 3127 c0 -19 10 -27 26 -20 21 8 17 33 -6 33 -11 0 -20 -6 -20
-13z"/>
<path d="M2943 3075 c-38 -16 -51 -57 -28 -91 43 -66 139 -18 113 57 -13 37
-46 50 -85 34z"/>
<path d="M3435 3004 c-21 -21 -19 -51 5 -64 38 -20 76 21 52 56 -13 19 -41 23
-57 8z"/>
<path d="M3571 2992 c-11 -21 3 -52 24 -52 26 0 46 29 35 51 -13 24 -46 25
-59 1z"/>
<path d="M2766 2981 c-29 -11 -45 -50 -34 -82 17 -50 93 -56 117 -10 17 30 13
50 -14 76 -25 26 -37 29 -69 16z"/>
<path d="M3284 2982 c-6 -4 -14 -17 -18 -29 -9 -29 24 -64 54 -56 52 14 44 93
-10 93 -8 0 -20 -4 -26 -8z"/>
<path d="M3677 2960 c-3 -14 1 -24 15 -31 24 -13 42 0 36 27 -5 27 -44 30 -51
4z"/>
<path d="M3116 2924 c-24 -24 -20 -61 9 -80 33 -22 70 -7 79 31 13 52 -51 87
-88 49z"/>
<path d="M3776 2921 c-3 -5 1 -15 10 -22 13 -10 17 -10 24 1 5 8 6 18 4 22 -7
11 -31 10 -38 -1z"/>
<path d="M2599 2869 c-47 -17 -55 -75 -16 -107 25 -21 55 -22 82 -1 34 28 34
71 -1 98 -30 23 -29 23 -65 10z"/>
<path d="M2978 2846 c-17 -9 -23 -20 -23 -46 0 -26 6 -37 23 -46 50 -25 97 20
74 70 -13 29 -43 38 -74 22z"/>
<path d="M930 2625 c-12 -15 -20 -208 -9 -219 2 -2 13 -6 24 -8 19 -3 20 3 23
87 l4 90 41 -84 c46 -93 73 -115 105 -83 14 14 17 36 17 122 l0 105 -25 0
c-25 0 -25 -1 -25 -87 0 -87 -7 -109 -21 -65 -14 45 -59 132 -74 144 -21 17
-45 16 -60 -2z"/>
<path d="M1194 2627 c-2 -7 -3 -62 -2 -122 3 -94 5 -108 21 -111 9 -1 21 5 25
14 7 14 9 166 3 220 -1 16 -40 16 -47 -1z"/>
<path d="M1355 2631 c-34 -15 -55 -46 -61 -92 -13 -95 48 -159 138 -144 33 6
39 10 36 28 -2 18 -9 21 -36 19 -19 -2 -44 3 -58 12 -19 13 -24 25 -24 61 0
57 19 75 76 75 41 0 45 2 42 22 -3 19 -10 23 -48 25 -25 1 -54 -1 -65 -6z"/>
<path d="M1539 2612 c-40 -36 -51 -110 -24 -161 29 -56 115 -75 167 -37 40 30
56 124 29 174 -30 56 -122 69 -172 24z m119 -40 c17 -22 15 -83 -4 -110 -28
-40 -93 -20 -95 31 -3 49 3 73 22 89 21 18 57 14 77 -10z"/>
<path d="M1769 2608 c-1 -35 -1 -113 0 -165 1 -24 7 -33 24 -39 35 -12 127
-11 137 1 17 21 -7 38 -57 39 l-48 1 -5 95 c-5 89 -6 95 -27 98 -20 3 -23 -1
-24 -30z"/>
<path d="M2028 2623 c-18 -20 -80 -212 -72 -224 2 -4 12 -6 22 -4 9 2 20 4 23
4 4 1 9 14 12 30 6 27 9 29 57 29 48 1 52 -1 61 -28 11 -32 29 -42 49 -30 11
7 8 27 -16 106 -16 54 -37 107 -46 116 -23 23 -70 23 -90 1z m62 -48 c5 -14
13 -37 16 -50 6 -23 3 -25 -31 -25 l-37 0 7 38 c6 33 21 62 31 62 3 0 9 -11
14 -25z"/>
<path d="M2250 2627 c-50 -25 -38 -87 23 -118 62 -31 69 -39 56 -55 -7 -8 -31
-14 -60 -14 -49 0 -63 -7 -51 -27 11 -18 69 -25 113 -13 82 22 76 99 -12 140
-71 34 -64 62 12 53 26 -2 38 1 42 12 13 32 -73 47 -123 22z"/>
<path d="M2536 2627 c-16 -12 -19 -28 -21 -116 -1 -105 6 -128 39 -115 12 4
16 19 16 53 l0 47 49 -2 c36 -2 51 2 55 13 10 25 -3 33 -55 33 -46 0 -49 2
-49 25 0 23 4 25 45 26 69 2 70 3 70 24 0 18 -8 20 -65 23 -44 2 -71 -2 -84
-11z"/>
<path d="M2755 2618 c-45 -40 -54 -133 -18 -183 33 -45 107 -54 160 -20 53 35
55 155 2 200 -41 33 -107 35 -144 3z m115 -43 c14 -17 18 -76 7 -102 -19 -42
-89 -43 -101 -1 -15 59 -1 110 34 120 20 6 47 -1 60 -17z"/>
<path d="M3010 2633 c-26 -10 -30 -26 -30 -129 0 -94 1 -102 21 -107 24 -6 31
8 33 61 1 51 25 48 56 -7 27 -47 67 -72 76 -47 3 8 -5 31 -18 51 l-24 38 27
27 c28 27 29 36 15 77 -11 34 -104 55 -156 36z m103 -52 c24 -24 -20 -53 -65
-43 -20 4 -19 39 2 52 15 10 49 5 63 -9z"/>
<path d="M3241 2626 c-15 -18 -40 -213 -28 -225 5 -5 17 -6 28 -4 14 4 19 15
21 42 0 20 2 41 3 46 2 6 3 27 4 48 2 61 17 42 30 -38 9 -54 18 -79 32 -89 31
-21 58 -9 68 33 14 51 25 115 23 124 -1 4 3 7 8 7 6 0 11 -13 11 -30 1 -16 3
-39 4 -50 1 -11 3 -36 4 -55 1 -32 4 -35 32 -35 28 0 30 2 25 28 -3 15 -8 54
-11 87 -9 101 -14 114 -42 121 -40 10 -57 -7 -71 -72 -21 -100 -23 -107 -29
-101 -3 3 -11 38 -19 78 -7 39 -19 78 -25 85 -15 18 -53 18 -68 0z"/>
<path d="M3561 2621 c-17 -17 -20 -32 -18 -110 1 -51 7 -95 13 -101 17 -17
151 -20 165 -4 19 23 0 34 -61 34 -39 0 -60 4 -63 13 -9 23 11 42 43 43 56 3
60 4 60 23 0 17 -8 20 -52 23 -47 3 -53 5 -50 23 5 27 4 27 64 29 46 1 53 4
53 21 0 18 -8 20 -67 23 -56 2 -70 0 -87 -17z"/>
<path d="M3748 2628 c-9 -25 4 -38 38 -38 38 0 37 6 35 -111 -1 -57 2 -78 12
-82 30 -11 42 11 44 85 1 40 2 81 2 91 1 13 10 17 36 17 31 0 35 3 35 25 0 25
0 25 -99 25 -70 0 -100 -4 -103 -12z"/>
<path d="M1760 2232 c0 -54 2 -60 23 -64 32 -5 68 2 62 13 -4 5 -17 9 -31 9
-18 0 -24 6 -25 23 -1 12 -2 33 -3 46 0 13 -7 26 -13 28 -10 4 -13 -12 -13
-55z"/>
<path d="M1867 2283 c-4 -3 -7 -28 -7 -55 0 -53 9 -62 62 -62 39 0 40 18 1 22
-40 4 -46 32 -8 32 14 0 25 5 25 10 0 6 -11 10 -25 10 -16 0 -25 6 -25 15 0
10 10 15 30 15 17 0 30 5 30 10 0 11 -73 14 -83 3z"/>
<path d="M2015 2238 c6 -50 30 -87 46 -71 4 5 12 28 17 53 l9 45 8 -43 c9 -51
38 -74 55 -42 6 11 9 20 7 20 -3 0 -1 18 3 40 4 23 3 43 -2 46 -14 9 -20 -1
-24 -42 -4 -44 -14 -58 -14 -20 0 34 -16 66 -34 66 -15 0 -26 -21 -26 -51 0
-10 -4 -19 -10 -19 -5 0 -9 3 -9 8 5 32 -3 62 -17 62 -13 0 -15 -8 -9 -52z"/>
<path d="M2187 2283 c-11 -10 -8 -101 3 -108 20 -13 80 -11 80 2 0 8 -12 13
-30 13 -20 0 -30 5 -30 15 0 9 9 15 25 15 14 0 25 5 25 10 0 6 -11 10 -25 10
-16 0 -25 6 -25 16 0 11 8 14 27 12 15 -2 28 2 30 10 5 13 -68 18 -80 5z"/>
<path d="M2298 2273 c-2 -10 -4 -36 -4 -57 1 -34 5 -41 28 -47 31 -8 75 12 69
32 -2 8 -4 25 -4 39 2 35 -14 50 -52 50 -23 0 -34 -5 -37 -17z m62 -19 c0 -9
-7 -14 -17 -12 -25 5 -28 28 -4 28 12 0 21 -6 21 -16z m5 -49 c0 -5 -10 -11
-22 -13 -16 -2 -23 2 -23 13 0 11 7 15 23 13 12 -2 22 -7 22 -13z"/>
<path d="M2467 2283 c-4 -3 -7 -30 -7 -60 0 -40 4 -53 15 -53 9 0 15 9 15 25
0 15 5 25 13 24 23 -3 37 1 37 11 0 6 -11 10 -25 10 -16 0 -25 6 -25 15 0 10
10 15 30 15 17 0 30 5 30 10 0 11 -73 14 -83 3z"/>
<path d="M2585 2278 c-30 -92 -32 -103 -23 -107 6 -2 15 4 20 13 13 23 53 20
70 -6 22 -33 28 -9 11 42 -19 55 -30 70 -55 70 -10 0 -20 -6 -23 -12z m45 -45
c0 -7 -7 -13 -15 -13 -15 0 -21 31 -8 43 8 8 23 -12 23 -30z"/>
<path d="M2696 2269 c-29 -42 9 -114 54 -102 30 8 35 23 7 23 -36 0 -53 24
-38 56 8 19 16 24 31 19 14 -5 20 -2 20 9 0 25 -56 21 -74 -5z"/>
<path d="M2799 2281 c-4 -71 0 -106 12 -106 19 0 20 106 2 113 -7 2 -13 -1
-14 -7z"/>
<path d="M2859 2288 c-4 -10 -4 -100 0 -107 9 -14 73 -18 78 -4 2 7 -8 13 -24
15 -28 3 -30 6 -32 66 0 17 -5 32 -11 32 -5 0 -11 -1 -11 -2z"/>
<path d="M2963 2273 c-5 -10 -7 -27 -7 -38 1 -11 2 -30 3 -41 1 -17 9 -23 35
-26 39 -4 56 0 56 13 0 5 -16 9 -35 9 -26 0 -33 3 -29 15 4 8 17 15 30 15 13
0 24 5 24 10 0 6 -13 10 -30 10 -22 0 -28 4 -24 15 4 9 11 15 18 14 26 -3 46
2 46 11 0 6 -18 10 -40 10 -28 0 -42 -5 -47 -17z"/>
<path d="M3070 2190 c-12 -7 -12 -10 3 -16 21 -8 29 -3 19 13 -5 8 -13 9 -22
3z"/>
<path d="M1825 2085 c-30 -29 -31 -35 -5 -68 24 -30 56 -29 82 3 19 24 13 55
-15 75 -29 20 -34 19 -62 -10z"/>
<path d="M2213 2099 c-54 -20 -53 -98 3 -119 48 -19 93 20 85 75 -5 40 -46 60
-88 44z"/>
<path d="M1678 2008 c-39 -32 -20 -98 28 -98 13 0 33 9 44 20 16 16 18 24 9
47 -16 43 -49 56 -81 31z"/>
<path d="M2049 1988 c-15 -5 -33 -23 -42 -44 -10 -19 -13 -33 -7 -29 5 3 10 1
10 -4 0 -6 9 -20 20 -31 39 -39 114 3 104 57 -9 49 -38 67 -85 51z"/>
<path d="M1050 1940 c0 -15 5 -20 18 -18 9 2 17 10 17 18 0 8 -8 16 -17 18
-13 2 -18 -3 -18 -18z"/>
<path d="M1534 1950 c-51 -20 -24 -100 29 -86 27 6 46 44 32 65 -11 19 -40 29
-61 21z"/>
<path d="M1142 1921 c-21 -13 -10 -46 16 -49 27 -4 40 22 22 43 -14 17 -20 18
-38 6z"/>
<path d="M1376 1904 c-19 -19 -20 -25 -3 -48 8 -11 23 -17 38 -14 31 4 39 46
13 65 -23 17 -29 16 -48 -3z"/>
<path d="M1240 1895 c-19 -23 -8 -50 22 -53 19 -2 28 2 33 18 12 39 -29 66
-55 35z"/>
<path d="M1852 1880 c-44 -41 -16 -112 45 -112 31 0 63 33 63 66 0 27 -39 66
-66 66 -11 0 -30 -9 -42 -20z"/>
<path d="M1693 1792 c-7 -4 -15 -22 -19 -39 -5 -25 -2 -34 17 -47 29 -20 53
-20 73 0 19 18 21 65 4 82 -14 14 -57 16 -75 4z"/>
<path d="M1214 1739 c-7 -12 15 -41 27 -33 14 8 11 31 -6 37 -8 4 -17 2 -21
-4z"/>
<path d="M1536 1725 c-25 -26 -18 -55 17 -68 11 -4 25 1 38 14 18 18 19 23 6
42 -18 28 -40 32 -61 12z"/>
<path d="M1297 1707 c-8 -20 9 -41 27 -34 23 9 21 47 -3 47 -10 0 -21 -6 -24
-13z"/>
<path d="M1405 1707 c-20 -16 -15 -44 11 -54 23 -9 51 23 38 44 -14 23 -27 26
-49 10z"/>
</g>
</svg>
